<svg width="20" height="20" viewBox="0 0 20 20" fill="none" xmlns="http://www.w3.org/2000/svg">
  <path d="M19 10.227c0-.638-.057-1.25-.164-1.836H10.2v3.474h4.935c-.213 1.095-.863 2.024-1.839 2.648v2.203h2.973C18.19 15.278 19 12.971 19 10.227Z" fill="#4285F4"/>
  <path d="M10.2 19c2.48 0 4.56-.823 6.08-2.283l-2.973-2.203c-.824.553-1.88.88-3.107.88-2.387 0-4.409-1.61-5.133-3.772H1.991v2.372C3.5 16.88 6.628 19 10.2 19Z" fill="#34A853"/>
  <path d="M5.067 11.622a5.793 5.793 0 0 1-.303-1.895c0-.66.11-1.3.303-1.895V5.46H1.99A8.792 8.792 0 0 0 1 9.727c0 1.419.34 2.765.99 3.968l3.077-2.073Z" fill="#FBBC05"/>
  <path d="M10.2 4.104c1.347 0 2.557.463 3.508 1.371l2.629-2.63C14.757 1.648 12.68.774 10.2.774 6.628.774 3.5 2.893 1.99 6.082L5.067 8.154C5.79 5.992 7.813 4.104 10.2 4.104Z" fill="#EA4335"/>
</svg>
