<svg width="1392" height="213" viewBox="0 0 1392 213" fill="none" xmlns="http://www.w3.org/2000/svg">
<g clip-path="url(#clip0_21_27)">
<mask id="mask0_21_27" style="mask-type:alpha" maskUnits="userSpaceOnUse" x="768" y="0" width="624" height="213">
<path d="M768 0.148193H1368C1381.25 0.148193 1392 10.8934 1392 24.1482V188.148C1392 201.403 1381.25 212.148 1368 212.148H768V0.148193Z" fill="#D9D9D9"/>
</mask>
<g mask="url(#mask0_21_27)">
<path d="M1438.86 53.4273L1651.58 171.286L1441.42 296.602L1438.86 53.4273Z" fill="#FF4141"/>
<ellipse cx="1160" cy="223.648" rx="118.5" ry="117.5" fill="#16AB59"/>
<path fill-rule="evenodd" clip-rule="evenodd" d="M1253.71 -137.881C1253.98 -138.365 1254.58 -138.537 1255.06 -138.264L1429.41 -39.211C1429.89 -38.9381 1430.06 -38.3241 1429.8 -37.8396L1333.57 138.173C1333.3 138.657 1332.7 138.829 1332.22 138.556L1157.87 39.5029C1157.39 39.23 1157.21 38.6161 1157.48 38.1315L1253.71 -137.881Z" fill="#FFBAC4"/>
</g>
<mask id="mask1_21_27" style="mask-type:alpha" maskUnits="userSpaceOnUse" x="0" y="0" width="624" height="213">
<path d="M624 212.148L24 212.148C10.7452 212.148 9.39372e-07 201.403 2.09815e-06 188.148L1.64355e-05 24.1483C1.75943e-05 10.8934 10.7452 0.148262 24 0.148263L624 0.148315L624 212.148Z" fill="#D9D9D9"/>
</mask>
<g mask="url(#mask1_21_27)">
<path fill-rule="evenodd" clip-rule="evenodd" d="M-49.7109 395.644C-50.1877 395.922 -50.7938 395.758 -51.0647 395.277L-149.421 220.534C-149.692 220.053 -149.525 219.437 -149.048 219.158L24.1348 117.923C24.6116 117.644 25.2177 117.808 25.4886 118.289L123.845 293.032C124.116 293.513 123.949 294.129 123.472 294.408L-49.7109 395.644Z" fill="#ADE4F7"/>
<path d="M168.989 -113.719L201.818 -67.8331L255.889 -81.4633L252.116 -24.7924L302.127 0.21064L263.517 41.1497L286.069 93.0868L230.688 99.1382L215.227 153.707L168.989 122.04L122.751 153.707L107.29 99.1382L51.9092 93.0868L74.4608 41.1497L35.8508 0.21064L85.8623 -24.7924L82.0892 -81.4633L136.16 -67.8331L168.989 -113.719Z" fill="#FFE54D"/>
<ellipse cx="257.5" cy="293.148" rx="118.5" ry="117.5" fill="#FF4141"/>
</g>
</g>
<defs>
<clipPath id="clip0_21_27">
<rect width="1392" height="213" fill="white"/>
</clipPath>
</defs>
</svg>
