<?xml version="1.0" standalone="no"?><!DOCTYPE svg PUBLIC "-//W3C//DTD SVG 1.1//EN" "http://www.w3.org/Graphics/SVG/1.1/DTD/svg11.dtd"><svg t="1768276074846" class="icon" viewBox="0 0 1024 1024" version="1.1" xmlns="http://www.w3.org/2000/svg" p-id="1049" xmlns:xlink="http://www.w3.org/1999/xlink" width="200" height="200"><path fill="#fff" d="M521.6 463.36l-89.344-26.88a24.917333 24.917333 0 0 1-17.024-31.36c1.706667-5.290667 5.162667-9.813333 9.813333-12.970667l114.261334-78.293333a24.832 24.832 0 0 0 10.922666-20.736l-1.792-135.466667a25.344 25.344 0 0 1 25.472-25.386666 26.410667 26.410667 0 0 1 15.786667 4.949333l112.213333 81.066667a26.581333 26.581333 0 0 0 23.765334 3.626666l132.565333-43.52a26.026667 26.026667 0 0 1 32.768 15.701334 24.277333 24.277333 0 0 1 0 16.042666l-44.970667 128.384a24.32 24.32 0 0 0 3.797334 22.997334l83.712 108.629333a24.576 24.576 0 0 1-5.248 34.986667 26.410667 26.410667 0 0 1-15.786667 4.949333l-139.946667-1.706667a26.154667 26.154667 0 0 0-21.461333 10.581334l-80.810667 110.677333a26.410667 26.410667 0 0 1-36.053333 5.973333 25.045333 25.045333 0 0 1-9.770667-13.056l-25.898666-80.64-327.594667 366.08a94.037333 94.037333 0 0 1-134.528 4.693334 87.04 87.04 0 0 1 4.821333-130.218667l380.330667-319.104z m-339.925333-4.693333C128.512 458.666667 85.333333 416.853333 85.333333 365.354667c0-51.541333 43.178667-93.354667 96.341334-93.354667 53.333333 0 96.426667 41.813333 96.426666 93.354667 0 51.498667-43.178667 93.312-96.426666 93.312z m224-266.666667c-30.421333 0-55.125333-23.893333-55.125334-53.333333S375.253333 85.333333 405.632 85.333333c30.421333 0 55.125333 23.893333 55.125333 53.333334s-24.746667 53.333333-55.125333 53.333333z m398.506666 666.666667c-53.248 0-96.426667-41.813333-96.426666-93.312 0-51.541333 43.178667-93.354667 96.426666-93.354667 53.205333 0 96.426667 41.813333 96.426667 93.354667 0 51.498667-43.221333 93.354667-96.426667 93.354666z" p-id="1050"></path></svg>